<?xml version="1.0" encoding="UTF-8" standalone="no"?>
<!-- Created with Inkscape (http://www.inkscape.org/) -->

<svg
   xmlns:dc="http://purl.org/dc/elements/1.1/"
   xmlns:cc="http://creativecommons.org/ns#"
   xmlns:rdf="http://www.w3.org/1999/02/22-rdf-syntax-ns#"
   xmlns:svg="http://www.w3.org/2000/svg"
   xmlns="http://www.w3.org/2000/svg"
   xmlns:sodipodi="http://sodipodi.sourceforge.net/DTD/sodipodi-0.dtd"
   xmlns:inkscape="http://www.inkscape.org/namespaces/inkscape"
   width="297mm"
   height="210mm"
   viewBox="0 0 297 210"
   version="1.1"
   id="svg8"
   inkscape:version="0.92.1 r15371"
   sodipodi:docname="Logo.svg">
  <defs
     id="defs2">
    <inkscape:perspective
       sodipodi:type="inkscape:persp3d"
       inkscape:vp_x="-170.91182 : 294.2518 : 1"
       inkscape:vp_y="0 : 560.9184 : 0"
       inkscape:vp_z="329.39833 : 294.2518 : 1"
       inkscape:persp3d-origin="79.243248 : 266.48635 : 1"
       id="perspective16" />
  </defs>
  <sodipodi:namedview
     id="base"
     pagecolor="#ffffff"
     bordercolor="#666666"
     borderopacity="1.0"
     inkscape:pageopacity="0.0"
     inkscape:pageshadow="2"
     inkscape:zoom="0.4985386"
     inkscape:cx="504.19356"
     inkscape:cy="379.58572"
     inkscape:document-units="mm"
     inkscape:current-layer="g8802"
     showgrid="false"
     inkscape:snap-page="false"
     inkscape:snap-text-baseline="false"
     inkscape:snap-center="false"
     inkscape:window-width="1366"
     inkscape:window-height="705"
     inkscape:window-x="-8"
     inkscape:window-y="-8"
     inkscape:window-maximized="1"
     inkscape:lockguides="false"
     showguides="false"
     inkscape:snap-grids="false"
     inkscape:object-nodes="false"
     inkscape:snap-nodes="false"
     inkscape:snap-global="false" />
  <metadata
     id="metadata5">
    <rdf:RDF>
      <cc:Work
         rdf:about="">
        <dc:format>image/svg+xml</dc:format>
        <dc:type
           rdf:resource="http://purl.org/dc/dcmitype/StillImage" />
        <dc:title />
      </cc:Work>
    </rdf:RDF>
  </metadata>
  <g
     id="g3833"
     transform="matrix(0.56507196,0,0,0.73174021,300.17446,-57.472592)">
    <g
       transform="translate(0.04113672,-24.599144)"
       id="g3870">
      <g
         id="g4728">
        <g
           inkscape:groupmode="layer"
           id="layer2"
           inkscape:label="circulo1" />
        <g
           id="g8686"
           transform="translate(-1.7088707e-5)">
          <g
             inkscape:groupmode="layer"
             id="layer1"
             inkscape:label="bsae" />
          <g
             inkscape:groupmode="layer"
             id="layer3"
             inkscape:label="circlo2" />
          <g
             inkscape:groupmode="layer"
             id="layer4"
             inkscape:label="rellono" />
          <g
             id="g8802"
             transform="translate(-11.446803,7.3663069)"
             inkscape:label="texto">
            <ellipse
               style="fill:#0b2228;fill-opacity:0;stroke-width:0.41146424"
               id="path3708"
               cx="-329.71048"
               cy="76.83934"
               rx="13.110424"
               ry="74.48568" />
            <path
               transform="matrix(1.7696861,0,0,1.3666052,-520.74809,87.0718)"
               sodipodi:type="star"
               style="fill:#0b2228;fill-opacity:0;stroke-width:0.26458332"
               id="path3710"
               sodipodi:sides="5"
               sodipodi:cx="83.60833"
               sodipodi:cy="47.016663"
               sodipodi:r1="78.808533"
               sodipodi:r2="172.05917"
               sodipodi:arg1="-1.3127891"
               sodipodi:arg2="0.042326486"
               inkscape:flatsided="false"
               inkscape:rounded="0"
               inkscape:randomized="0"
               d="M 103.71666,-29.183336 255.5134,54.297148 162.29265,42.593728 129.80576,212.7579 112.12958,120.48314 -59.745157,142.16989 22.551112,96.844376 -51.186433,-59.91664 17.351641,4.345408 143.65407,-114.22498 Z"
               inkscape:transform-center-x="-6.2138156"
               inkscape:transform-center-y="-1.3667633" />
            <path
               transform="matrix(1.7696861,0,0,1.3666052,-520.74809,87.0718)"
               sodipodi:type="star"
               style="fill:#0b2228;fill-opacity:0;stroke-width:0.26458332"
               id="path3712"
               sodipodi:sides="5"
               sodipodi:cx="89.958328"
               sodipodi:cy="40.666656"
               sodipodi:r1="272.02255"
               sodipodi:r2="235.93407"
               sodipodi:arg1="1.9368529"
               sodipodi:arg2="0.24366064"
               inkscape:flatsided="false"
               inkscape:rounded="0"
               inkscape:randomized="0"
               d="M -7.4083538,294.66665 318.92322,97.587341 -181.69798,26.555755 106.57758,276.01466 19.432177,-222.05436 -128.7353,129.19904 318.02708,-107.59296 -61.821017,-139.96533 301.43872,211.75819 214.84716,-159.50243 Z"
               inkscape:transform-center-x="8.8301616"
               inkscape:transform-center-y="3.0220045" />
            <path
               transform="matrix(1.7696861,0,0,1.3666052,-520.74809,87.0718)"
               sodipodi:type="star"
               style="fill:#0b2228;fill-opacity:0;stroke-width:0.26458332"
               id="path3714"
               sodipodi:sides="5"
               sodipodi:cx="204.25833"
               sodipodi:cy="-16.483337"
               sodipodi:r1="258.4111"
               sodipodi:r2="129.20555"
               sodipodi:arg1="-0.30361783"
               sodipodi:arg2="0.3247007"
               inkscape:flatsided="true"
               inkscape:rounded="0"
               inkscape:randomized="0"
               d="M 450.84999,-93.74167 353.93639,194.16513 50.172795,190.96291 -40.649823,-98.922976 206.9823,-274.88008 Z"
               inkscape:transform-center-x="-0.84175177"
               inkscape:transform-center-y="-17.140361" />
            <path
               transform="matrix(1.7696861,0,0,1.3666052,-520.74809,87.0718)"
               sodipodi:type="star"
               style="fill:#0b2228;fill-opacity:0;stroke-width:0.26458332"
               id="path3716"
               sodipodi:sides="5"
               sodipodi:cx="103.71667"
               sodipodi:cy="52.308334"
               sodipodi:r1="146.89499"
               sodipodi:r2="118.84054"
               sodipodi:arg1="-1.0587993"
               sodipodi:arg2="-0.4304808"
               inkscape:flatsided="true"
               inkscape:rounded="0"
               inkscape:randomized="0"
               d="M 175.68334,-75.749997 247.7463,81.180505 120.76521,198.21065 -29.776391,113.60875 4.1648813,-55.708237 Z"
               inkscape:transform-center-x="-5.2682883"
               inkscape:transform-center-y="8.9219881" />
            <path
               transform="matrix(1.7696861,0,0,1.3666052,-520.74809,87.0718)"
               sodipodi:type="star"
               style="fill:#0b2228;fill-opacity:0;stroke-width:0.26458332"
               id="path3718"
               sodipodi:sides="5"
               sodipodi:cx="92.074997"
               sodipodi:cy="81.941666"
               sodipodi:r1="152.72672"
               sodipodi:r2="123.55849"
               sodipodi:arg1="-1.1722739"
               sodipodi:arg2="-0.54395535"
               inkscape:flatsided="true"
               inkscape:rounded="0"
               inkscape:randomized="0"
               d="M 151.34167,-58.816679 244.25855,94.810896 126.86293,230.65363 -38.608424,160.98148 -23.479736,-17.921006 Z"
               inkscape:transform-center-x="-10.750061"
               inkscape:transform-center-y="3.9768093" />
            <path
               transform="matrix(1.7696861,0,0,1.3666052,-520.74809,87.0718)"
               sodipodi:type="star"
               style="fill:#0b2228;fill-opacity:0;stroke-width:0.26458332"
               id="path3720"
               sodipodi:sides="5"
               sodipodi:cx="93.133331"
               sodipodi:cy="15.26667"
               sodipodi:r1="152.49184"
               sodipodi:r2="123.36849"
               sodipodi:arg1="1.536088"
               sodipodi:arg2="2.1644066"
               inkscape:flatsided="true"
               inkscape:rounded="0"
               inkscape:randomized="0"
               d="M 98.425005,167.66666 -50.17246,67.393539 -0.72619218,-104.91715 178.43075,-111.13788 239.70956,57.328178 Z"
               inkscape:transform-center-x="-1.6352137"
               inkscape:transform-center-y="12.997722" />
            <ellipse
               style="fill:#008000;fill-opacity:0;stroke-width:0.41146424"
               id="path3722"
               cx="-374.66052"
               cy="194.71475"
               rx="31.839603"
               ry="88.225754" />
            <ellipse
               style="fill:#ff00ff;fill-opacity:0;stroke:none;stroke-width:0.41146424"
               id="path3724"
               cx="-350.31256"
               cy="194.71475"
               rx="91.772972"
               ry="105.58163" />
            <ellipse
               style="fill:#ff00ff;fill-opacity:0;stroke:none;stroke-width:0.41146424"
               id="path3726"
               cx="-303.3877"
               cy="207.63074"
               rx="3.6438963"
               ry="150.31676" />
            <text
               transform="scale(1.1379589,0.87876634)"
               xml:space="preserve"
               style="font-style:italic;font-variant:normal;font-weight:normal;font-stretch:normal;font-size:79.00113678px;line-height:125%;font-family:Arial;-inkscape-font-specification:'Arial Italic';letter-spacing:0.20573212px;word-spacing:0.08229285px;writing-mode:lr-tb;fill:#000000;fill-opacity:1;stroke:none;stroke-width:0.41146424"
               x="-999.10284"
               y="557.33221"
               id="text3744"><tspan
                 sodipodi:role="line"
                 id="tspan3742"
                 x="-999.10284"
                 y="628.68475"
                 style="font-style:italic;font-variant:normal;font-weight:normal;font-stretch:normal;font-family:Arial;-inkscape-font-specification:'Arial Italic';stroke-width:0.41146424" /></text>
            <path
               transform="matrix(1.7696861,0,0,1.3666052,-520.74809,87.0718)"
               sodipodi:type="star"
               style="fill:#d4aa00;fill-opacity:0;stroke:none;stroke-width:0.26458332"
               id="path3805"
               sodipodi:sides="5"
               sodipodi:cx="93.133331"
               sodipodi:cy="15.26667"
               sodipodi:r1="69.601006"
               sodipodi:r2="56.308399"
               sodipodi:arg1="-2.0616481"
               sodipodi:arg2="-1.4333296"
               inkscape:flatsided="true"
               inkscape:rounded="0"
               inkscape:randomized="0"
               d="M 60.325,-46.116661 141.37402,-34.9044 155.75605,45.642575 83.595612,84.211082 24.615982,27.500755 Z"
               inkscape:transform-center-x="2.9473183"
               inkscape:transform-center-y="3.7805394" />
            <text
               xml:space="preserve"
               style="font-style:normal;font-variant:normal;font-weight:normal;font-stretch:normal;font-size:79.00114441px;line-height:125%;font-family:Arial;-inkscape-font-specification:Arial;letter-spacing:0.20573214px;word-spacing:0.08229285px;writing-mode:lr-tb;fill:#000000;fill-opacity:1;stroke:none;stroke-width:0.41146427"
               x="-433.31372"
               y="161.30334"
               id="text8771"
               transform="scale(1.1379589,0.87876635)"><tspan
                 sodipodi:role="line"
                 id="tspan8769"
                 x="-433.31372"
                 y="232.46397"
                 style="font-style:normal;font-variant:normal;font-weight:normal;font-stretch:normal;font-family:Arial;-inkscape-font-specification:Arial;stroke-width:0.41146427" /></text>
            <text
               xml:space="preserve"
               style="font-style:normal;font-variant:normal;font-weight:normal;font-stretch:normal;font-size:79.00114441px;line-height:125%;font-family:Arial;-inkscape-font-specification:Arial;letter-spacing:0.20573214px;word-spacing:0.08229285px;writing-mode:lr-tb;fill:#000000;fill-opacity:1;stroke:none;stroke-width:0.41146427"
               x="-405.45511"
               y="104.40069"
               id="text8775"
               transform="scale(1.1379589,0.87876635)"><tspan
                 sodipodi:role="line"
                 id="tspan8773"
                 x="-405.45511"
                 y="175.56131"
                 style="font-style:normal;font-variant:normal;font-weight:normal;font-stretch:normal;font-family:Arial;-inkscape-font-specification:Arial;stroke-width:0.41146427" /></text>
            <g
               transform="translate(-81.710749,0.7252818)"
               id="g150">
              <ellipse
                 transform="scale(-1,1)"
                 cx="257.46024"
                 cy="265.03189"
                 rx="168.12018"
                 ry="81.996315"
                 id="path3732"
                 style="fill:#c8ab37;fill-rule:evenodd;stroke-width:0.27252328" />
              <ellipse
                 ry="105.9119"
                 rx="137.15068"
                 cy="241.89412"
                 cx="254.76219"
                 id="path3738"
                 style="fill:#786721;fill-rule:evenodd;stroke-width:0.237317"
                 transform="scale(-1,1)" />
              <ellipse
                 ry="93.806847"
                 rx="97.464485"
                 transform="matrix(0.82987457,-0.55794999,0.74781325,0.66390914,0,0)"
                 cy="81.327538"
                 cx="-380.27432"
                 id="path3740"
                 style="fill:#2b2200;fill-rule:evenodd;stroke-width:0.3627004" />
              <path
                 inkscape:transform-center-x="-3.3946078e-006"
                 inkscape:transform-center-y="3.61297e-006"
                 d="m -191.84959,268.82434 -13.70866,19.98773 23.34106,-3.26692 -23.82695,4.43998 18.81468,14.19455 -19.98774,-13.70866 3.26693,23.34105 -4.43998,-23.82695 -14.19455,18.81468 13.70866,-19.98773 -23.34105,3.26693 23.82694,-4.43998 -18.81468,-14.19455 19.98774,13.70866 -3.26693,-23.34106 4.43998,23.82695 z"
                 inkscape:randomized="0"
                 inkscape:rounded="0"
                 inkscape:flatsided="false"
                 sodipodi:arg2="1.1090569e-006"
                 sodipodi:arg1="-0.91533877"
                 sodipodi:r2="1.6589473"
                 sodipodi:r1="25.212551"
                 sodipodi:cy="288.81207"
                 sodipodi:cx="-207.21719"
                 sodipodi:sides="8"
                 id="path3809"
                 style="fill:#c8ab37;fill-rule:evenodd;stroke-width:0.0319028"
                 sodipodi:type="star" />
              <path
                 inkscape:connector-curvature="0"
                 id="path3811"
                 d="m -271.39144,200.05599 a 74.98823,58.473083 0 0 0 -74.98818,58.47304 74.98823,58.473083 0 0 0 17.19652,37.18933 79.362542,68.072413 0 0 1 -3.05297,-18.62413 79.362542,68.072413 0 0 1 79.36255,-68.07239 79.362542,68.072413 0 0 1 30.37193,5.20635 74.98823,58.473083 0 0 0 -48.88985,-14.1722 z"
                 style="fill:#c8ab37;fill-rule:evenodd;stroke-width:0.3035309" />
              <g
                 aria-label="Spockars"
                 style="font-style:italic;font-variant:normal;font-weight:normal;font-stretch:normal;font-size:39.5005722px;font-family:Arial;-inkscape-font-specification:'Arial Italic';letter-spacing:0.20573214px;word-spacing:0.08229285px;writing-mode:lr-tb;fill:#ffcc00;fill-opacity:1;stroke:none;stroke-width:0.41146427"
                 id="text8779">
                <path
                   d="m -417.90622,265.31787 1.44588,3.42688 -0.94964,0.25934 q -1.56338,0.49353 -2.64281,1.62309 -1.06104,1.12376 -1.25579,3.00554 -0.17636,1.87598 0.54362,4.15667 1.02191,3.23711 2.97232,4.48216 1.95622,1.26343 3.7771,0.68861 1.26909,-0.40064 2.03297,-1.63284 0.73967,-1.24478 1.21057,-5.90375 0.37496,-3.61741 0.74487,-5.0084 0.6207,-2.19828 1.74565,-3.50401 1.14334,-1.31154 2.94582,-1.88056 2.07837,-0.65611 4.11209,-0.0441 2.03373,0.61198 3.60752,2.522 1.57961,1.92842 2.45055,4.68732 1.03933,3.29229 0.64994,5.90297 -0.38939,2.61067 -1.90931,4.2029 -1.51411,1.61062 -3.18785,2.13899 -0.16553,0.0523 -0.55758,0.1558 l -1.37328,-3.38913 q 1.14034,-0.35999 1.72022,-0.76552 1.00583,-0.72204 1.53445,-1.7384 0.52863,-1.01635 0.55878,-2.52257 0.0543,-1.49363 -0.47402,-3.16736 -0.929,-2.94283 -2.77004,-4.16172 -1.40642,-0.93136 -3.08015,-0.40299 -0.99321,0.31354 -1.62152,1.07821 -0.60991,0.75886 -0.94015,2.33958 -0.23146,1.1248 -0.68101,5.21071 -0.37009,3.31249 -0.75742,4.6483 -0.51031,1.77914 -1.65848,3.01131 -1.12978,1.22635 -2.89548,1.78376 -2.18873,0.69095 -4.47024,-0.0653 -2.25732,-0.74365 -4.01213,-2.77856 -1.7548,-2.03492 -2.71284,-5.06971 -1.44576,-4.57978 -0.37675,-8.1129 1.09322,-3.52053 6.27414,-5.1763 z"
                   style=""
                   id="path3898" />
                <path
                   d="m -424.33082,295.50627 24.93093,-14.70641 2.16943,2.38084 -2.51268,1.48065 q 2.59101,0.0658 4.06681,0.62585 1.50305,0.56134 2.56828,1.73037 1.97457,2.16699 1.69115,5.0346 -0.26916,2.85461 -3.206,5.53067 -2.36658,2.15644 -5.0342,3.15204 -2.65337,0.98261 -4.87591,0.92031 -2.22254,-0.0623 -3.84377,-0.72471 -1.62123,-0.6624 -2.73842,-1.88846 -2.4812,-2.72299 -1.07945,-6.7401 l -9.78487,5.78478 z m 16.64036,-5.82124 q -1.69653,1.54588 -2.13149,2.3858 -0.60191,1.2008 -0.4317,2.53305 0.1702,1.33224 1.14449,2.40148 2.02653,2.22402 5.76852,1.31929 3.75624,-0.91771 6.36518,-3.29499 1.92463,-1.75373 2.12097,-3.62871 0.22358,-1.87372 -1.02351,-3.24235 -0.89635,-0.9837 -2.19029,-1.34418 -1.27967,-0.37347 -2.98292,-0.15224 -1.676,0.22249 -3.60162,1.11604 -1.92562,0.89354 -3.03763,1.90681 z"
                   style=""
                   id="path3900" />
                <path
                   d="m -397.04785,301.40192 q 3.37661,-4.95772 8.50874,-6.22285 4.23115,-1.03868 8.13675,1.62135 3.06072,2.0846 3.62297,5.26785 0.57819,3.1941 -1.63669,6.44611 -1.98688,2.91725 -4.88198,4.63253 -2.88425,1.69933 -5.98021,1.55095 -3.08002,-0.13753 -5.48714,-1.77698 -1.97671,-1.3463 -3.02729,-3.29863 -1.03462,-1.94147 -0.84229,-4.07406 0.20827,-2.12173 1.58714,-4.14627 z m 3.08079,1.67822 q -1.62859,2.39119 -1.32769,4.41633 0.31176,2.0092 2.08124,3.21436 0.92459,0.62972 2.08296,0.88193 1.16922,0.23628 2.47149,0.003 1.30227,-0.23318 2.50657,-0.83644 1.23109,-0.60836 2.33673,-1.51218 1.56904,-1.24161 2.55706,-2.69226 1.56344,-2.29554 1.25746,-4.34748 -0.27919,-2.05702 -2.03272,-3.25132 -1.35501,-0.92287 -2.91604,-1.02929 -1.55018,-0.12236 -3.3057,0.5022 -1.73958,0.6354 -3.29915,2.00015 -1.53277,1.35965 -2.41221,2.65089 z"
                   style=""
                   id="path3902" />
                <path
                   d="m -367.36796,319.06044 2.98319,1.8499 q -2.85186,2.88423 -5.85421,3.51034 -2.97658,0.61714 -5.7547,-0.7265 -3.00383,-1.45282 -3.9385,-4.30446 -0.91731,-2.84324 0.77064,-6.33324 1.46121,-3.0212 4.0701,-5.35877 2.60889,-2.33757 5.56199,-2.77325 2.97885,-0.44465 5.84378,0.94098 2.96911,1.43602 3.89084,3.96003 0.93014,2.50665 -0.40511,5.2674 l -3.19142,-1.28645 q 0.83081,-1.76208 0.30242,-3.23886 -0.51103,-1.46837 -2.14317,-2.25776 -1.89259,-0.91536 -3.86109,-0.38912 -1.96851,0.52624 -3.9513,2.58815 -1.95703,2.05295 -3.04875,4.31016 -1.14209,2.3614 -0.67135,4.04596 0.47074,1.68457 1.9987,2.42357 1.52796,0.73901 3.47967,0.24749 1.96907,-0.48311 3.91827,-2.47557 z"
                   style=""
                   id="path3904" />
                <path
                   d="m -365.24612,328.14144 15.17069,-24.58464 3.26545,1.17888 -9.40019,15.24615 12.88606,-5.70337 4.33579,1.56529 -10.81158,4.21715 0.6089,13.87667 -3.59199,-1.29676 -0.2766,-11.27551 -5.23548,2.00602 -3.66746,5.95554 z"
                   style=""
                   id="path3906" />
                <path
                   d="m -332.46059,335.85203 q -2.15118,1.04889 -3.96053,1.33017 -1.80444,0.26263 -3.6509,-0.22378 -2.7417,-0.72226 -3.99776,-2.76845 -1.25114,-2.06484 -0.58784,-4.58274 0.43728,-1.65994 1.51743,-2.73168 1.10371,-1.08548 2.55478,-1.52099 1.45598,-0.45415 3.35357,-0.31328 1.19668,0.0759 4.40176,0.7806 3.22372,0.70962 4.74639,0.53232 0.75526,-1.277 0.99601,-2.1909 0.30954,-1.17502 -0.37154,-2.07247 -0.92935,-1.24209 -3.18613,-1.8366 -2.12622,-0.56012 -3.73833,0.0324 -1.58854,0.5788 -2.66097,2.15121 l -3.33453,-1.19755 q 1.82076,-2.67172 4.49026,-3.64391 2.68815,-0.96726 6.1386,-0.0583 3.67426,0.96792 5.35729,3.28615 1.29736,1.73794 0.74707,3.82686 -0.41763,1.58535 -1.4342,3.55143 l -2.39752,4.63401 q -1.14131,2.21246 -1.52946,3.68589 -0.24566,0.93256 -0.29719,2.79385 l -3.41315,-0.89913 q -0.0243,-1.04356 0.25689,-2.56512 z m 3.24442,-7.24315 q -0.78244,0.0931 -1.6424,0.0261 -0.8413,-0.0621 -2.78793,-0.39536 -3.01566,-0.51518 -4.33607,-0.42422 -1.3155,0.0723 -2.16191,0.78677 -0.84641,0.71446 -1.12647,1.77757 -0.37341,1.41748 0.35569,2.58688 0.74776,1.17431 2.55692,1.6509 1.67859,0.44219 3.45756,-0.0266 1.78388,-0.48745 3.09676,-1.83696 1.31288,-1.3495 2.58785,-4.14506 z"
                   style=""
                   id="path3908" />
                <path
                   d="m -324.93965,340.20501 8.11952,-19.2865 3.02904,0.59009 -1.65223,3.94218 q 2.00602,-2.02616 3.70027,-2.85545 1.71318,-0.8256 3.26557,-0.52318 1.0223,0.19916 2.37405,1.22885 l -2.02053,2.90757 q -0.76438,-0.81701 -1.82455,-1.02354 -1.79849,-0.35037 -4.08257,1.28756 -2.28409,1.63794 -4.3774,6.63388 l -3.27495,7.73289 z"
                   style=""
                   id="path3910" />
                <path
                   d="m -310.50153,335.88073 3.48722,0.26749 q -0.20584,1.49027 0.10755,2.60444 0.3134,1.11416 1.44382,1.95177 1.14952,0.84024 2.79264,1.0672 2.29272,0.31668 3.56575,-0.44207 1.27303,-0.75874 1.44457,-2.00063 0.12403,-0.89798 -0.45294,-1.79544 -0.59609,-0.9001 -3.18637,-2.44558 -2.56854,-1.56195 -3.2668,-2.14516 -1.17191,-0.96016 -1.67636,-2.10071 -0.50182,-1.15967 -0.31182,-2.5353 0.33252,-2.40735 2.48063,-3.86299 2.14811,-1.45564 5.58719,-0.98062 3.8212,0.5278 5.56279,2.57912 1.76334,2.03485 1.44128,4.93041 l -3.41343,-0.23784 q 0.17692,-1.84473 -0.89808,-3.08356 -1.075,-1.23883 -3.3104,-1.5476 -1.79596,-0.24806 -2.90295,0.43627 -1.10699,0.68433 -1.23894,1.63963 -0.13195,0.95529 0.62753,1.80008 0.50457,0.57592 2.75031,1.93752 3.73654,2.26846 4.63103,3.40448 1.42408,1.81275 1.11004,4.08636 -0.20848,1.50938 -1.34524,2.83212 -1.11765,1.32538 -3.14965,1.94036 -2.01025,0.5985 -4.58956,0.24224 -3.5155,-0.48558 -5.74002,-2.56466 -2.22452,-2.07908 -1.54979,-5.97733 z"
                   style=""
                   id="path3912" />
              </g>
              <g
                 aria-label="Design."
                 style="font-style:italic;font-variant:normal;font-weight:normal;font-stretch:normal;font-size:26.33371353px;font-family:Arial;-inkscape-font-specification:'Arial Italic';letter-spacing:0.20573214px;word-spacing:0.08229285px;writing-mode:lr-tb;fill:#ffcc00;fill-opacity:1;stroke:none;stroke-width:0.41146427"
                 id="text8783">
                <path
                   d="m -172.71696,212.28754 16.59193,-9.77341 3.82424,4.20424 q 1.37569,1.51238 1.8837,2.51038 0.74339,1.40964 0.71788,2.91032 -0.016,1.49202 -0.77588,2.93064 -0.75987,1.43861 -2.16762,2.71913 -1.6836,1.53143 -3.53954,2.281 -1.83778,0.75043 -3.64633,0.88329 -1.79039,0.13371 -3.21159,-0.22483 -1.40304,-0.35768 -2.80452,-1.32514 -1.06668,-0.73316 -2.30394,-2.09336 z m 3.57761,0.76099 2.0073,2.20675 q 1.35839,1.49336 2.68979,2.40289 0.82878,0.56716 1.62891,0.77798 1.04233,0.28599 2.24803,0.19742 1.58973,-0.12501 3.16805,-0.77849 1.5965,-0.65263 3.11839,-2.03697 1.69311,-1.54008 2.0603,-2.95177 0.37671,-1.42034 -0.15903,-2.60169 -0.39553,-0.87434 -1.69335,-2.30112 l -2.2409,-2.46357 z"
                   style="font-size:26.33371353px;fill:#ffcc00;stroke-width:0.41146427"
                   id="path3915" />
                <path
                   d="m -151.18967,232.92136 0.93408,2.07424 q -1.70247,0.42152 -3.89836,-0.34226 -2.18944,-0.75264 -3.40758,-2.85552 -0.76053,-1.3129 -0.79778,-2.76244 -0.0197,-1.44486 0.8023,-2.69373 0.82844,-1.23774 2.30823,-2.09495 1.93598,-1.12146 4.26518,-1.28191 2.34677,-0.15578 4.05073,0.75922 1.71509,0.90855 2.67542,2.56637 1.22458,2.114 0.63998,4.1318 -0.57815,2.02893 -2.84792,3.34374 -0.86785,0.50273 -1.87044,0.87546 l -5.04012,-8.70077 q -0.3707,0.1553 -0.64885,0.31643 -1.65782,0.96033 -2.09853,2.22608 -0.42313,1.27044 0.21494,2.37195 0.5994,1.03474 1.85817,1.64295 1.25877,0.60822 2.86055,0.42334 z m -0.46394,-7.54752 3.84132,6.63128 q 0.31798,-0.16934 0.4515,-0.24668 1.51317,-0.87654 1.876,-2.09719 0.37395,-1.22708 -0.31569,-2.4176 -0.74764,-1.29065 -2.25648,-1.84316 -1.50239,-0.54138 -3.59665,-0.0266 z"
                   style="font-size:26.33371353px;fill:#ffcc00;stroke-width:0.41146427"
                   id="path3917" />
                <path
                   d="m -148.48698,238.28735 0.87772,2.16012 q -0.95036,0.32049 -1.52187,0.8389 -0.57152,0.5184 -0.73499,1.44199 -0.15937,0.93578 0.19399,1.98361 0.49306,1.46209 1.32443,1.99592 0.83136,0.53382 1.62333,0.26674 0.57265,-0.19311 0.93647,-0.80431 0.3597,-0.62339 0.51126,-2.62853 0.16785,-1.99708 0.3081,-2.58716 0.22425,-0.9848 0.75468,-1.62505 0.54261,-0.64435 1.41986,-0.94019 1.5352,-0.51771 3.04265,0.3309 1.50745,0.84862 2.24704,3.04175 0.82177,2.43682 0.11597,4.08609 -0.68951,1.65735 -2.51287,2.32652 l -0.87347,-2.10728 q 1.15323,-0.44319 1.57258,-1.45306 0.41934,-1.00988 -0.0614,-2.43542 -0.38623,-1.14531 -1.12381,-1.6022 -0.73758,-0.45689 -1.34678,-0.25145 -0.60921,0.20544 -0.8873,0.90986 -0.19353,0.47235 -0.33786,2.21724 -0.24193,2.90409 -0.65363,3.77569 -0.65792,1.38887 -2.10782,1.87782 -0.96255,0.3246 -2.08987,0.0399 -1.12322,-0.27256 -2.09457,-1.30197 -0.95506,-1.02132 -1.50975,-2.66618 -0.75603,-2.24187 -0.17732,-4.18752 0.57871,-1.94566 3.10522,-2.70268 z"
                   style="font-size:26.33371353px;fill:#ffcc00;stroke-width:0.41146427"
                   id="path3919" />
                <path
                   d="m -132.54843,252.7274 2.69226,0.0751 0.4118,2.27756 -2.69226,-0.0751 z m -16.55953,-0.45555 13.94548,0.37938 0.41408,2.29021 -13.94547,-0.37937 z"
                   style="font-size:26.33371353px;fill:#ffcc00;stroke-width:0.41146427"
                   id="path3921" />
                <path
                   d="m -149.04701,258.22783 -0.17945,2.35637 q -0.79753,-0.0125 -1.19245,0.21272 -0.39491,0.22519 -0.60557,0.70451 -0.27237,0.63467 -0.2557,1.63748 0.0351,2.10846 1.14324,3.01596 0.74286,0.59207 3.207,1.06551 l 1.1095,0.21304 q -1.86861,-1.7822 -1.90259,-3.82638 -0.0344,-2.0699 1.45937,-3.49647 1.50684,-1.41393 4.29669,-1.46031 2.30131,-0.0383 4.24795,1.02249 1.94685,1.07361 2.94916,2.57443 1.01517,1.50061 1.04188,3.10767 0.0447,2.687 -2.47676,4.1821 l 2.24472,0.42565 0.0355,2.13417 -13.22363,-2.53223 q -2.18022,-0.41386 -3.40091,-1.12659 -1.23355,-0.71252 -1.92388,-2.01277 -0.69013,-1.28739 -0.71855,-2.9973 -0.0274,-1.64563 0.37703,-2.84834 0.40461,-1.18985 1.21759,-1.79492 0.80034,-0.59201 1.85457,-0.60953 0.32142,-0.005 0.69532,0.0527 z m 7.32507,2.78461 q -1.40136,0.0233 -2.10397,0.30503 -0.98354,0.40215 -1.4989,1.11802 -0.5023,0.72851 -0.48776,1.60275 0.019,1.14423 0.83492,2.26235 0.82877,1.11791 2.52451,1.78416 1.69595,0.67911 3.22587,0.65368 1.6842,-0.028 2.65855,-0.98298 0.98742,-0.94233 0.96455,-2.31797 -0.0141,-0.84853 -0.49019,-1.63794 -0.46322,-0.78962 -1.41329,-1.46827 -0.93699,-0.66601 -2.24148,-1.00441 -1.30427,-0.32554 -1.97281,-0.31442 z"
                   style="font-size:26.33371353px;fill:#ffcc00;stroke-width:0.41146427"
                   id="path3923" />
                <path
                   d="m -147.80379,273.23939 12.748,5.66646 -0.44412,2.06145 -2.21981,-0.99121 q 1.08036,1.64015 1.457,2.94455 0.37665,1.3044 0.11396,2.52368 -0.34933,1.62151 -1.42691,2.34954 -1.08029,0.74061 -2.55096,0.42377 -0.74162,-0.15978 -2.26758,-0.83051 l -7.71684,-3.43821 0.49016,-2.27514 8.07768,3.59486 q 1.17498,0.52936 1.76576,0.65664 0.6662,0.14352 1.18121,-0.2322 0.51229,-0.36315 0.69915,-1.23047 0.37641,-1.74721 -0.58539,-3.38813 -0.96452,-1.62835 -3.88089,-2.92746 l -5.93058,-2.63247 z"
                   style="font-size:26.33371353px;fill:#ffcc00;stroke-width:0.41146427"
                   id="path3925" />
                <path
                   d="m -151.63592,288.25341 2.24625,1.48602 -0.97209,2.45015 -2.24151,-1.49797 z"
                   style="font-size:26.33371353px;fill:#ffcc00;stroke-width:0.41146427"
                   id="path3927" />
              </g>
            </g>
            <rect
               ry="2.0661786"
               y="179.68338"
               x="-757.42749"
               height="96.462486"
               width="132.42776"
               id="rect152"
               style="fill:#0b2228;fill-opacity:0;stroke-width:0.41146427" />
          </g>
          <g
             inkscape:groupmode="layer"
             id="layer5"
             inkscape:label="texto" />
        </g>
      </g>
    </g>
  </g>
</svg>
